<svg xmlns="http://www.w3.org/2000/svg" xmlns:xlink="http://www.w3.org/1999/xlink" width="3780" zoomAndPan="magnify" viewBox="0 0 2835 1417.499962" height="1890" preserveAspectRatio="xMidYMid meet" version="1.0"><defs><g/><clipPath id="f6944c1c8f"><rect x="0" width="2194" y="0" height="380"/></clipPath><clipPath id="c6cdd0a202"><rect x="0" width="2171" y="0" height="125"/></clipPath></defs><g transform="matrix(1, 0, 0, 1, 319, 369)"><g clip-path="url(#f6944c1c8f)"><g fill="#000000" fill-opacity="1"><g transform="translate(1.144253, 292.104003)"><g><path d="M 193.265625 -118.59375 L 253.078125 -14.859375 C 254.460938 -13.253906 254.921875 -10.609375 254.453125 -6.921875 C 253.992188 -2.078125 251.347656 0.34375 246.515625 0.34375 L 209.171875 0.34375 C 205.710938 0.34375 203.289062 -0.347656 201.90625 -1.734375 C 200.519531 -2.878906 199.253906 -4.488281 198.109375 -6.5625 L 144.171875 -101.296875 C 140.484375 -108.210938 136.679688 -112.707031 132.765625 -114.78125 C 128.847656 -117.082031 122.625 -118.234375 114.09375 -118.234375 L 79.171875 -118.234375 L 79.171875 -11.75 C 79.171875 -6.445312 77.898438 -3.101562 75.359375 -1.71875 C 72.828125 -0.34375 70.875 0.34375 69.5 0.34375 L 37.6875 0.34375 C 36.300781 0.34375 34.28125 -0.34375 31.625 -1.71875 C 28.976562 -3.101562 27.65625 -6.445312 27.65625 -11.75 L 27.65625 -272.78125 C 27.65625 -278.3125 28.976562 -281.710938 31.625 -282.984375 C 34.28125 -284.253906 36.300781 -284.890625 37.6875 -284.890625 L 69.5 -284.890625 C 70.875 -284.890625 72.828125 -284.253906 75.359375 -282.984375 C 77.898438 -281.710938 79.171875 -278.3125 79.171875 -272.78125 L 79.171875 -169.40625 L 110.984375 -169.40625 C 113.285156 -169.40625 115.359375 -169.460938 117.203125 -169.578125 C 119.046875 -169.691406 120.660156 -169.863281 122.046875 -170.09375 C 124.804688 -170.5625 127.222656 -171.253906 129.296875 -172.171875 C 131.378906 -173.328125 133.226562 -174.941406 134.84375 -177.015625 C 135.757812 -178.171875 136.734375 -179.492188 137.765625 -180.984375 C 138.804688 -182.484375 139.789062 -184.039062 140.71875 -185.65625 L 192.921875 -277.96875 C 193.835938 -279.8125 195.101562 -281.425781 196.71875 -282.8125 C 198.101562 -284.195312 200.640625 -284.890625 204.328125 -284.890625 L 238.5625 -284.890625 C 242.707031 -284.890625 245.359375 -282.925781 246.515625 -279 C 246.972656 -276.007812 246.625 -273.242188 245.46875 -270.703125 L 188.421875 -170.453125 C 184.960938 -164.679688 181.851562 -159.492188 179.09375 -154.890625 C 177.9375 -153.273438 176.835938 -151.71875 175.796875 -150.21875 C 174.765625 -148.71875 173.671875 -147.28125 172.515625 -145.90625 C 175.972656 -142.675781 179.429688 -138.753906 182.890625 -134.140625 C 186.347656 -129.535156 189.804688 -124.351562 193.265625 -118.59375 Z M 193.265625 -118.59375 "/></g></g></g><g fill="#000000" fill-opacity="1"><g transform="translate(300.900454, 292.104003)"><g><path d="M 212.96875 -252.734375 L 310.125 -13.140625 C 311.507812 -9.910156 311.851562 -7.144531 311.15625 -4.84375 C 310.925781 -3.914062 310.289062 -2.816406 309.25 -1.546875 C 308.21875 -0.285156 306.320312 0.34375 303.5625 0.34375 L 266.5625 0.34375 C 261.71875 0.34375 258.375 -2.191406 256.53125 -7.265625 L 170.796875 -221.265625 C 170.566406 -221.734375 170.453125 -221.96875 170.453125 -221.96875 L 169.0625 -221.96875 C 169.0625 -221.96875 169.003906 -221.90625 168.890625 -221.78125 C 168.773438 -221.664062 168.601562 -221.378906 168.375 -220.921875 L 124.125 -108.90625 L 166.984375 -108.90625 C 171.828125 -108.90625 175.171875 -106.597656 177.015625 -101.984375 L 189.46875 -71.21875 C 190.613281 -67.300781 190.148438 -63.957031 188.078125 -61.1875 C 186.234375 -57.96875 183.238281 -56.359375 179.09375 -56.359375 L 103.375 -56.359375 L 83.671875 -6.921875 C 81.828125 -2.078125 78.597656 0.34375 73.984375 0.34375 L 35.953125 0.34375 C 33.191406 0.34375 31.289062 -0.285156 30.25 -1.546875 C 29.21875 -2.816406 28.582031 -3.914062 28.34375 -4.84375 C 27.65625 -6.914062 27.890625 -9.679688 29.046875 -13.140625 L 125.5 -252.734375 C 130.113281 -264.953125 135.1875 -273.363281 140.71875 -277.96875 C 141.40625 -278.425781 142.207031 -279 143.125 -279.6875 C 144.050781 -280.382812 144.976562 -280.960938 145.90625 -281.421875 C 152.8125 -286.265625 160.757812 -288.6875 169.75 -288.6875 C 179.207031 -288.6875 187.738281 -285.804688 195.34375 -280.046875 C 202.945312 -274.285156 208.128906 -266.910156 210.890625 -257.921875 C 211.359375 -257.222656 211.765625 -256.410156 212.109375 -255.484375 C 212.453125 -254.566406 212.738281 -253.648438 212.96875 -252.734375 Z M 212.96875 -252.734375 "/></g></g></g><g fill="#000000" fill-opacity="1"><g transform="translate(609.300044, 292.104003)"><g><path d="M 266.5625 -284.890625 C 268.175781 -284.890625 270.25 -284.253906 272.78125 -282.984375 C 275.320312 -281.710938 276.59375 -278.425781 276.59375 -273.125 L 276.59375 -246.15625 C 276.59375 -240.394531 275.320312 -236.878906 272.78125 -235.609375 C 270.25 -234.347656 268.175781 -233.71875 266.5625 -233.71875 L 177.703125 -233.71875 L 177.703125 -11.75 C 177.703125 -6.445312 176.492188 -3.160156 174.078125 -1.890625 C 171.660156 -0.628906 169.644531 0 168.03125 0 L 136.21875 0 C 134.832031 0 132.867188 -0.628906 130.328125 -1.890625 C 127.796875 -3.160156 126.53125 -6.445312 126.53125 -11.75 L 126.53125 -233.71875 L 37.6875 -233.71875 C 36.070312 -233.71875 33.992188 -234.347656 31.453125 -235.609375 C 28.921875 -236.878906 27.65625 -240.394531 27.65625 -246.15625 L 27.65625 -273.125 C 27.65625 -278.425781 28.921875 -281.710938 31.453125 -282.984375 C 33.992188 -284.253906 36.070312 -284.890625 37.6875 -284.890625 Z M 266.5625 -284.890625 "/></g></g></g><g fill="#000000" fill-opacity="1"><g transform="translate(930.837916, 292.104003)"><g><path d="M 266.90625 -196.71875 C 266.90625 -174.820312 261.144531 -158.113281 249.625 -146.59375 C 262.300781 -135.0625 268.640625 -117.890625 268.640625 -95.078125 L 268.640625 -71.90625 C 268.640625 -66.601562 268.40625 -61.472656 267.9375 -56.515625 C 267.476562 -51.566406 266.789062 -46.90625 265.875 -42.53125 C 264.945312 -38.144531 263.734375 -34.050781 262.234375 -30.25 C 260.742188 -26.445312 258.84375 -22.929688 256.53125 -19.703125 C 252.613281 -13.484375 246.851562 -8.53125 239.25 -4.84375 C 232.332031 -1.382812 223.6875 0.34375 213.3125 0.34375 L 57.734375 0.34375 C 52.429688 0.34375 47.414062 -0.976562 42.6875 -3.625 C 37.96875 -6.28125 34.226562 -9.910156 31.46875 -14.515625 C 29.625 -17.742188 28.351562 -21.316406 27.65625 -25.234375 L 28 -261.375 C 28.46875 -262.757812 28.988281 -264.195312 29.5625 -265.6875 C 30.132812 -267.1875 30.769531 -268.628906 31.46875 -270.015625 C 37 -279.003906 44.945312 -283.847656 55.3125 -284.546875 L 55.3125 -284.890625 L 208.125 -284.890625 C 229.332031 -284.890625 244.429688 -279.007812 253.421875 -267.25 C 262.410156 -255.957031 266.90625 -238.898438 266.90625 -216.078125 Z M 78.484375 -52.890625 C 78.484375 -52.203125 78.539062 -51.742188 78.65625 -51.515625 C 78.769531 -51.285156 78.828125 -51.171875 78.828125 -51.171875 L 199.140625 -51.171875 C 206.054688 -51.171875 210.894531 -52.664062 213.65625 -55.65625 C 216.425781 -58.882812 217.8125 -64.421875 217.8125 -72.265625 L 217.8125 -95.765625 C 217.8125 -103.140625 216.3125 -108.671875 213.3125 -112.359375 C 210.09375 -116.046875 204.101562 -117.890625 195.34375 -117.890625 L 128.265625 -117.890625 C 125.265625 -117.890625 122.613281 -118.984375 120.3125 -121.171875 C 118.007812 -123.367188 116.859375 -126.078125 116.859375 -129.296875 L 116.859375 -157.65625 C 116.859375 -160.882812 118.007812 -163.59375 120.3125 -165.78125 C 122.613281 -167.96875 125.265625 -169.0625 128.265625 -169.0625 L 195.34375 -169.0625 C 204.332031 -169.0625 210.207031 -170.675781 212.96875 -173.90625 C 215.96875 -177.132812 217.46875 -182.203125 217.46875 -189.109375 L 217.46875 -212.96875 C 217.46875 -220.570312 216.082031 -225.875 213.3125 -228.875 C 210.550781 -232.101562 205.828125 -233.71875 199.140625 -233.71875 L 79.171875 -233.71875 C 78.710938 -233.71875 78.484375 -233.023438 78.484375 -231.640625 Z M 78.484375 -52.890625 "/></g></g></g><g fill="#000000" fill-opacity="1"><g transform="translate(1244.423686, 292.104003)"><g><path d="M 263.109375 -259.640625 C 269.785156 -251.347656 274.738281 -240.054688 277.96875 -225.765625 C 279.351562 -219.078125 280.445312 -211.582031 281.25 -203.28125 C 282.0625 -194.988281 282.46875 -186.117188 282.46875 -176.671875 L 282.46875 -108.21875 C 282.46875 -98.53125 282.0625 -89.535156 281.25 -81.234375 C 280.445312 -72.941406 279.351562 -65.457031 277.96875 -58.78125 C 274.738281 -44.71875 269.785156 -33.304688 263.109375 -24.546875 C 255.960938 -15.554688 246.972656 -9.21875 236.140625 -5.53125 C 225.078125 -1.613281 212.050781 0.34375 197.0625 0.34375 L 112.703125 0.34375 C 97.492188 0.34375 84.585938 -1.613281 73.984375 -5.53125 C 63.148438 -9.21875 54.160156 -15.671875 47.015625 -24.890625 C 40.097656 -33.878906 35.144531 -45.175781 32.15625 -58.78125 C 30.539062 -65.457031 29.382812 -72.941406 28.6875 -81.234375 C 28 -89.535156 27.65625 -98.53125 27.65625 -108.21875 L 27.65625 -176.671875 C 27.65625 -196.492188 29.15625 -212.859375 32.15625 -225.765625 C 35.144531 -239.359375 40.097656 -250.648438 47.015625 -259.640625 C 54.160156 -268.398438 63.148438 -274.851562 73.984375 -279 C 85.046875 -282.925781 97.953125 -284.890625 112.703125 -284.890625 L 197.0625 -284.890625 C 212.050781 -284.890625 225.078125 -282.925781 236.140625 -279 C 246.972656 -274.851562 255.960938 -268.398438 263.109375 -259.640625 Z M 230.953125 -182.546875 C 230.953125 -187.617188 230.835938 -192.285156 230.609375 -196.546875 C 230.378906 -200.816406 229.914062 -204.675781 229.21875 -208.125 C 228.300781 -214.582031 226.34375 -219.769531 223.34375 -223.6875 C 221.039062 -226.914062 217.582031 -229.453125 212.96875 -231.296875 C 210.664062 -231.984375 208.070312 -232.554688 205.1875 -233.015625 C 202.3125 -233.484375 199.03125 -233.71875 195.34375 -233.71875 L 114.4375 -233.71875 C 110.75 -233.71875 107.460938 -233.484375 104.578125 -233.015625 C 101.703125 -232.554688 99.113281 -231.984375 96.8125 -231.296875 C 92.195312 -229.453125 88.738281 -226.914062 86.4375 -223.6875 C 85.050781 -221.84375 83.894531 -219.59375 82.96875 -216.9375 C 82.050781 -214.289062 81.25 -211.351562 80.5625 -208.125 C 80.09375 -204.675781 79.6875 -200.816406 79.34375 -196.546875 C 79 -192.285156 78.828125 -187.617188 78.828125 -182.546875 L 78.828125 -101.984375 C 78.828125 -96.921875 79 -92.253906 79.34375 -87.984375 C 79.6875 -83.722656 80.09375 -79.863281 80.5625 -76.40625 C 81.25 -73.40625 82.050781 -70.578125 82.96875 -67.921875 C 83.894531 -65.273438 85.050781 -63.03125 86.4375 -61.1875 C 88.738281 -57.5 92.195312 -54.96875 96.8125 -53.59375 C 100.957031 -51.976562 106.832031 -51.171875 114.4375 -51.171875 L 195.34375 -51.171875 C 202.945312 -51.171875 208.820312 -51.976562 212.96875 -53.59375 C 217.582031 -54.96875 221.039062 -57.5 223.34375 -61.1875 C 226.113281 -64.644531 228.070312 -69.71875 229.21875 -76.40625 C 229.914062 -79.863281 230.378906 -83.722656 230.609375 -87.984375 C 230.835938 -92.253906 230.953125 -96.921875 230.953125 -101.984375 Z M 230.953125 -182.546875 "/></g></g></g><g fill="#000000" fill-opacity="1"><g transform="translate(1571.839116, 292.104003)"><g><path d="M 266.5625 -284.890625 C 268.175781 -284.890625 270.25 -284.253906 272.78125 -282.984375 C 275.320312 -281.710938 276.59375 -278.425781 276.59375 -273.125 L 276.59375 -246.15625 C 276.59375 -240.394531 275.320312 -236.878906 272.78125 -235.609375 C 270.25 -234.347656 268.175781 -233.71875 266.5625 -233.71875 L 177.703125 -233.71875 L 177.703125 -11.75 C 177.703125 -6.445312 176.492188 -3.160156 174.078125 -1.890625 C 171.660156 -0.628906 169.644531 0 168.03125 0 L 136.21875 0 C 134.832031 0 132.867188 -0.628906 130.328125 -1.890625 C 127.796875 -3.160156 126.53125 -6.445312 126.53125 -11.75 L 126.53125 -233.71875 L 37.6875 -233.71875 C 36.070312 -233.71875 33.992188 -234.347656 31.453125 -235.609375 C 28.921875 -236.878906 27.65625 -240.394531 27.65625 -246.15625 L 27.65625 -273.125 C 27.65625 -278.425781 28.921875 -281.710938 31.453125 -282.984375 C 33.992188 -284.253906 36.070312 -284.890625 37.6875 -284.890625 Z M 266.5625 -284.890625 "/></g></g></g><g fill="#000000" fill-opacity="1"><g transform="translate(1893.376988, 292.104003)"><g><path d="M 228.875 -284.890625 C 233.019531 -284.890625 237.109375 -284.023438 241.140625 -282.296875 C 245.179688 -280.566406 248.523438 -277.335938 251.171875 -272.609375 C 253.828125 -267.890625 255.15625 -260.914062 255.15625 -251.6875 L 255.15625 -213.3125 C 255.15625 -211.007812 255.097656 -209.050781 254.984375 -207.4375 C 254.867188 -205.820312 254.691406 -204.207031 254.453125 -202.59375 C 254.222656 -200.988281 253.878906 -199.378906 253.421875 -197.765625 C 252.960938 -196.148438 252.503906 -194.648438 252.046875 -193.265625 C 250.660156 -190.265625 248.929688 -187.726562 246.859375 -185.65625 C 244.546875 -183.351562 242.007812 -181.28125 239.25 -179.4375 L 79.171875 -64.3125 C 78.941406 -64.3125 78.828125 -64.078125 78.828125 -63.609375 L 78.828125 -52.203125 C 78.828125 -51.515625 79.171875 -51.171875 79.859375 -51.171875 L 243.75 -51.171875 C 245.125 -51.171875 247.078125 -50.535156 249.609375 -49.265625 C 252.148438 -47.992188 253.421875 -44.707031 253.421875 -39.40625 L 253.421875 -11.75 C 253.421875 -6.445312 252.148438 -3.160156 249.609375 -1.890625 C 247.078125 -0.628906 245.125 0 243.75 0 L 53.9375 0 C 44.488281 0 37.6875 -2.878906 33.53125 -8.640625 C 29.613281 -13.941406 27.65625 -22.007812 27.65625 -32.84375 L 27.65625 -69.84375 C 27.65625 -72.375 27.65625 -74.5625 27.65625 -76.40625 C 27.65625 -78.25 27.769531 -79.976562 28 -81.59375 C 28.695312 -85.738281 29.503906 -88.96875 30.421875 -91.28125 C 31.578125 -94.269531 33.191406 -96.800781 35.265625 -98.875 C 37.109375 -100.945312 39.53125 -103.023438 42.53125 -105.109375 L 203.640625 -221.265625 C 203.867188 -221.265625 203.984375 -221.5 203.984375 -221.96875 L 203.984375 -232.671875 C 203.984375 -233.367188 203.640625 -233.71875 202.953125 -233.71875 L 39.0625 -233.71875 C 37.6875 -233.71875 35.726562 -234.347656 33.1875 -235.609375 C 30.65625 -236.878906 29.390625 -240.164062 29.390625 -245.46875 L 29.390625 -273.125 C 29.390625 -278.425781 30.65625 -281.710938 33.1875 -282.984375 C 35.726562 -284.253906 37.6875 -284.890625 39.0625 -284.890625 Z M 228.875 -284.890625 "/></g></g></g></g></g><g transform="matrix(1, 0, 0, 1, 319, 713)"><g clip-path="url(#c6cdd0a202)"><g fill="#000000" fill-opacity="1"><g transform="translate(0.155663, 97.482338)"><g><path d="M 50.234375 1.109375 C 42.273438 1.109375 35 -0.859375 28.40625 -4.796875 C 21.820312 -8.742188 16.628906 -14.140625 12.828125 -20.984375 C 9.035156 -27.835938 7.140625 -35.394531 7.140625 -43.65625 C 7.140625 -51.84375 9.035156 -59.335938 12.828125 -66.140625 C 16.628906 -72.953125 21.820312 -78.347656 28.40625 -82.328125 C 35 -86.316406 42.273438 -88.3125 50.234375 -88.3125 C 55.890625 -88.3125 60.78125 -87.566406 64.90625 -86.078125 C 69.039062 -84.585938 73.234375 -82.128906 77.484375 -78.703125 C 78.367188 -78.035156 78.960938 -77.347656 79.265625 -76.640625 C 79.566406 -75.929688 79.71875 -75.09375 79.71875 -74.125 C 79.71875 -72.632812 79.175781 -71.40625 78.09375 -70.4375 C 77.007812 -69.476562 75.765625 -69 74.359375 -69 C 72.941406 -69 71.632812 -69.476562 70.4375 -70.4375 C 67.394531 -73.050781 64.421875 -74.929688 61.515625 -76.078125 C 58.609375 -77.234375 54.847656 -77.8125 50.234375 -77.8125 C 44.429688 -77.8125 39.09375 -76.285156 34.21875 -73.234375 C 29.34375 -70.179688 25.472656 -66.03125 22.609375 -60.78125 C 19.742188 -55.539062 18.3125 -49.832031 18.3125 -43.65625 C 18.3125 -37.40625 19.742188 -31.671875 22.609375 -26.453125 C 25.472656 -21.242188 29.34375 -17.113281 34.21875 -14.0625 C 39.09375 -11.007812 44.429688 -9.484375 50.234375 -9.484375 C 57.378906 -9.484375 64.226562 -11.941406 70.78125 -16.859375 C 72.039062 -17.753906 73.269531 -18.203125 74.46875 -18.203125 C 75.875 -18.203125 77.039062 -17.695312 77.96875 -16.6875 C 78.90625 -15.6875 79.375 -14.367188 79.375 -12.734375 C 79.375 -11.160156 78.78125 -9.78125 77.59375 -8.59375 C 69.550781 -2.125 60.429688 1.109375 50.234375 1.109375 Z M 50.234375 1.109375 "/></g></g></g><g fill="#000000" fill-opacity="1"><g transform="translate(82.437933, 97.482338)"><g><path d="M 37.734375 0.453125 C 31.773438 0.453125 26.453125 -0.867188 21.765625 -3.515625 C 17.078125 -6.160156 13.429688 -9.828125 10.828125 -14.515625 C 8.222656 -19.203125 6.921875 -24.523438 6.921875 -30.484375 C 6.921875 -36.503906 8.222656 -41.859375 10.828125 -46.546875 C 13.429688 -51.242188 17.078125 -54.910156 21.765625 -57.546875 C 26.453125 -60.191406 31.773438 -61.515625 37.734375 -61.515625 C 43.609375 -61.515625 48.875 -60.191406 53.53125 -57.546875 C 58.1875 -54.910156 61.832031 -51.242188 64.46875 -46.546875 C 67.113281 -41.859375 68.4375 -36.503906 68.4375 -30.484375 C 68.4375 -24.523438 67.132812 -19.203125 64.53125 -14.515625 C 61.925781 -9.828125 58.296875 -6.160156 53.640625 -3.515625 C 48.992188 -0.867188 43.691406 0.453125 37.734375 0.453125 Z M 37.734375 -9.59375 C 41.523438 -9.59375 44.925781 -10.484375 47.9375 -12.265625 C 50.957031 -14.054688 53.304688 -16.535156 54.984375 -19.703125 C 56.660156 -22.867188 57.5 -26.460938 57.5 -30.484375 C 57.5 -34.492188 56.660156 -38.097656 54.984375 -41.296875 C 53.304688 -44.503906 50.957031 -47 47.9375 -48.78125 C 44.925781 -50.570312 41.523438 -51.46875 37.734375 -51.46875 C 33.941406 -51.46875 30.535156 -50.570312 27.515625 -48.78125 C 24.503906 -47 22.140625 -44.503906 20.421875 -41.296875 C 18.710938 -38.097656 17.859375 -34.492188 17.859375 -30.484375 C 17.859375 -26.460938 18.710938 -22.867188 20.421875 -19.703125 C 22.140625 -16.535156 24.503906 -14.054688 27.515625 -12.265625 C 30.535156 -10.484375 33.941406 -9.59375 37.734375 -9.59375 Z M 37.734375 -9.59375 "/></g></g></g><g fill="#000000" fill-opacity="1"><g transform="translate(157.798297, 97.482338)"><g><path d="M 40.40625 -61.625 C 45.539062 -61.625 50.15625 -60.503906 54.25 -58.265625 C 58.34375 -56.035156 61.539062 -52.78125 63.84375 -48.5 C 66.15625 -44.226562 67.3125 -39.078125 67.3125 -33.046875 L 67.3125 -5.578125 C 67.3125 -3.941406 66.769531 -2.582031 65.6875 -1.5 C 64.613281 -0.425781 63.257812 0.109375 61.625 0.109375 C 59.988281 0.109375 58.628906 -0.425781 57.546875 -1.5 C 56.472656 -2.582031 55.9375 -3.941406 55.9375 -5.578125 L 55.9375 -33.046875 C 55.9375 -39.078125 54.316406 -43.632812 51.078125 -46.71875 C 47.835938 -49.8125 43.539062 -51.359375 38.1875 -51.359375 C 35.0625 -51.359375 32.210938 -50.722656 29.640625 -49.453125 C 27.066406 -48.191406 25.054688 -46.476562 23.609375 -44.3125 C 22.160156 -42.15625 21.4375 -39.738281 21.4375 -37.0625 L 21.4375 -5.578125 C 21.4375 -3.941406 20.914062 -2.582031 19.875 -1.5 C 18.832031 -0.425781 17.453125 0.109375 15.734375 0.109375 C 14.097656 0.109375 12.738281 -0.425781 11.65625 -1.5 C 10.582031 -2.582031 10.046875 -3.941406 10.046875 -5.578125 L 10.046875 -55.375 C 10.046875 -57.082031 10.582031 -58.457031 11.65625 -59.5 C 12.738281 -60.539062 14.097656 -61.0625 15.734375 -61.0625 C 17.453125 -61.0625 18.832031 -60.539062 19.875 -59.5 C 20.914062 -58.457031 21.4375 -57.082031 21.4375 -55.375 L 21.4375 -54.140625 C 23.8125 -56.523438 26.632812 -58.367188 29.90625 -59.671875 C 33.1875 -60.972656 36.6875 -61.625 40.40625 -61.625 Z M 40.40625 -61.625 "/></g></g></g><g fill="#000000" fill-opacity="1"><g transform="translate(233.940167, 97.482338)"><g><path d="M 40.40625 -61.625 C 45.539062 -61.625 50.15625 -60.503906 54.25 -58.265625 C 58.34375 -56.035156 61.539062 -52.78125 63.84375 -48.5 C 66.15625 -44.226562 67.3125 -39.078125 67.3125 -33.046875 L 67.3125 -5.578125 C 67.3125 -3.941406 66.769531 -2.582031 65.6875 -1.5 C 64.613281 -0.425781 63.257812 0.109375 61.625 0.109375 C 59.988281 0.109375 58.628906 -0.425781 57.546875 -1.5 C 56.472656 -2.582031 55.9375 -3.941406 55.9375 -5.578125 L 55.9375 -33.046875 C 55.9375 -39.078125 54.316406 -43.632812 51.078125 -46.71875 C 47.835938 -49.8125 43.539062 -51.359375 38.1875 -51.359375 C 35.0625 -51.359375 32.210938 -50.722656 29.640625 -49.453125 C 27.066406 -48.191406 25.054688 -46.476562 23.609375 -44.3125 C 22.160156 -42.15625 21.4375 -39.738281 21.4375 -37.0625 L 21.4375 -5.578125 C 21.4375 -3.941406 20.914062 -2.582031 19.875 -1.5 C 18.832031 -0.425781 17.453125 0.109375 15.734375 0.109375 C 14.097656 0.109375 12.738281 -0.425781 11.65625 -1.5 C 10.582031 -2.582031 10.046875 -3.941406 10.046875 -5.578125 L 10.046875 -55.375 C 10.046875 -57.082031 10.582031 -58.457031 11.65625 -59.5 C 12.738281 -60.539062 14.097656 -61.0625 15.734375 -61.0625 C 17.453125 -61.0625 18.832031 -60.539062 19.875 -59.5 C 20.914062 -58.457031 21.4375 -57.082031 21.4375 -55.375 L 21.4375 -54.140625 C 23.8125 -56.523438 26.632812 -58.367188 29.90625 -59.671875 C 33.1875 -60.972656 36.6875 -61.625 40.40625 -61.625 Z M 40.40625 -61.625 "/></g></g></g><g fill="#000000" fill-opacity="1"><g transform="translate(310.082038, 97.482338)"><g><path d="M 64.859375 -31.484375 C 64.859375 -30.066406 64.375 -28.894531 63.40625 -27.96875 C 62.4375 -27.039062 61.210938 -26.578125 59.734375 -26.578125 L 17.296875 -26.578125 C 18.117188 -21.359375 20.484375 -17.148438 24.390625 -13.953125 C 28.296875 -10.753906 33.078125 -9.15625 38.734375 -9.15625 C 40.972656 -9.15625 43.300781 -9.5625 45.71875 -10.375 C 48.132812 -11.195312 50.125 -12.203125 51.6875 -13.390625 C 52.726562 -14.210938 53.957031 -14.625 55.375 -14.625 C 56.789062 -14.625 57.90625 -14.253906 58.71875 -13.515625 C 60.0625 -12.390625 60.734375 -11.125 60.734375 -9.71875 C 60.734375 -8.375 60.140625 -7.253906 58.953125 -6.359375 C 56.421875 -4.347656 53.273438 -2.707031 49.515625 -1.4375 C 45.753906 -0.175781 42.160156 0.453125 38.734375 0.453125 C 32.628906 0.453125 27.160156 -0.867188 22.328125 -3.515625 C 17.492188 -6.160156 13.71875 -9.828125 11 -14.515625 C 8.28125 -19.203125 6.921875 -24.523438 6.921875 -30.484375 C 6.921875 -36.429688 8.203125 -41.769531 10.765625 -46.5 C 13.335938 -51.226562 16.910156 -54.910156 21.484375 -57.546875 C 26.066406 -60.191406 31.257812 -61.515625 37.0625 -61.515625 C 42.789062 -61.515625 47.738281 -60.25 51.90625 -57.71875 C 56.082031 -55.1875 59.285156 -51.648438 61.515625 -47.109375 C 63.742188 -42.566406 64.859375 -37.359375 64.859375 -31.484375 Z M 37.0625 -51.90625 C 31.632812 -51.90625 27.222656 -50.414062 23.828125 -47.4375 C 20.441406 -44.46875 18.304688 -40.488281 17.421875 -35.5 L 54.59375 -35.5 C 53.925781 -40.488281 52.066406 -44.46875 49.015625 -47.4375 C 45.960938 -50.414062 41.976562 -51.90625 37.0625 -51.90625 Z M 37.0625 -51.90625 "/></g></g></g><g fill="#000000" fill-opacity="1"><g transform="translate(377.180632, 97.482338)"><g><path d="M 37.734375 0.453125 C 31.859375 0.453125 26.570312 -0.882812 21.875 -3.5625 C 17.1875 -6.25 13.519531 -9.953125 10.875 -14.671875 C 8.238281 -19.398438 6.921875 -24.671875 6.921875 -30.484375 C 6.921875 -36.429688 8.203125 -41.769531 10.765625 -46.5 C 13.335938 -51.226562 16.929688 -54.910156 21.546875 -57.546875 C 26.160156 -60.191406 31.367188 -61.515625 37.171875 -61.515625 C 45.953125 -61.515625 53.25 -58.164062 59.0625 -51.46875 C 59.800781 -50.644531 60.171875 -49.675781 60.171875 -48.5625 C 60.171875 -46.925781 59.351562 -45.550781 57.71875 -44.4375 C 56.976562 -43.914062 56.125 -43.65625 55.15625 -43.65625 C 53.4375 -43.65625 51.984375 -44.320312 50.796875 -45.65625 C 48.929688 -47.664062 46.898438 -49.132812 44.703125 -50.0625 C 42.515625 -51 40.003906 -51.46875 37.171875 -51.46875 C 31.441406 -51.46875 26.789062 -49.550781 23.21875 -45.71875 C 19.644531 -41.882812 17.859375 -36.804688 17.859375 -30.484375 C 17.859375 -26.460938 18.695312 -22.867188 20.375 -19.703125 C 22.050781 -16.535156 24.394531 -14.054688 27.40625 -12.265625 C 30.414062 -10.484375 33.859375 -9.59375 37.734375 -9.59375 C 42.796875 -9.59375 46.890625 -10.898438 50.015625 -13.515625 C 51.429688 -14.554688 52.804688 -15.078125 54.140625 -15.078125 C 55.179688 -15.078125 56.148438 -14.738281 57.046875 -14.0625 C 58.460938 -12.875 59.171875 -11.535156 59.171875 -10.046875 C 59.171875 -8.929688 58.722656 -7.925781 57.828125 -7.03125 C 52.472656 -2.039062 45.773438 0.453125 37.734375 0.453125 Z M 37.734375 0.453125 "/></g></g></g><g fill="#000000" fill-opacity="1"><g transform="translate(444.279256, 97.482338)"><g><path d="M 36.0625 -11.171875 C 37.394531 -11.171875 38.523438 -10.644531 39.453125 -9.59375 C 40.390625 -8.550781 40.859375 -7.210938 40.859375 -5.578125 C 40.859375 -3.941406 40.242188 -2.601562 39.015625 -1.5625 C 37.785156 -0.519531 36.207031 0 34.28125 0 L 32.265625 0 C 28.617188 0 25.285156 -0.945312 22.265625 -2.84375 C 19.253906 -4.738281 16.890625 -7.320312 15.171875 -10.59375 C 13.460938 -13.875 12.609375 -17.5625 12.609375 -21.65625 L 12.609375 -49.234375 L 7.484375 -49.234375 C 5.921875 -49.234375 4.65625 -49.675781 3.6875 -50.5625 C 2.71875 -51.457031 2.234375 -52.578125 2.234375 -53.921875 C 2.234375 -55.410156 2.71875 -56.597656 3.6875 -57.484375 C 4.65625 -58.378906 5.921875 -58.828125 7.484375 -58.828125 L 12.609375 -58.828125 L 12.609375 -74.90625 C 12.609375 -76.539062 13.128906 -77.878906 14.171875 -78.921875 C 15.210938 -79.972656 16.554688 -80.5 18.203125 -80.5 C 19.835938 -80.5 21.175781 -79.972656 22.21875 -78.921875 C 23.257812 -77.878906 23.78125 -76.539062 23.78125 -74.90625 L 23.78125 -58.828125 L 33.265625 -58.828125 C 34.828125 -58.828125 36.09375 -58.378906 37.0625 -57.484375 C 38.03125 -56.597656 38.515625 -55.410156 38.515625 -53.921875 C 38.515625 -52.578125 38.03125 -51.457031 37.0625 -50.5625 C 36.09375 -49.675781 34.828125 -49.234375 33.265625 -49.234375 L 23.78125 -49.234375 L 23.78125 -21.65625 C 23.78125 -18.675781 24.597656 -16.179688 26.234375 -14.171875 C 27.867188 -12.171875 29.878906 -11.171875 32.265625 -11.171875 Z M 36.0625 -11.171875 "/></g></g></g><g fill="#000000" fill-opacity="1"><g transform="translate(489.04888, 97.482338)"><g><path d="M 16.859375 0 C 15.222656 0 13.863281 -0.535156 12.78125 -1.609375 C 11.707031 -2.691406 11.171875 -4.050781 11.171875 -5.6875 L 11.171875 -55.375 C 11.171875 -57.082031 11.707031 -58.457031 12.78125 -59.5 C 13.863281 -60.539062 15.222656 -61.0625 16.859375 -61.0625 C 18.566406 -61.0625 19.941406 -60.539062 20.984375 -59.5 C 22.023438 -58.457031 22.546875 -57.082031 22.546875 -55.375 L 22.546875 -5.6875 C 22.546875 -4.050781 22.023438 -2.691406 20.984375 -1.609375 C 19.941406 -0.535156 18.566406 0 16.859375 0 Z M 16.859375 -71 C 14.847656 -71 13.113281 -71.722656 11.65625 -73.171875 C 10.207031 -74.628906 9.484375 -76.363281 9.484375 -78.375 C 9.484375 -80.382812 10.207031 -82.113281 11.65625 -83.5625 C 13.113281 -85.007812 14.847656 -85.734375 16.859375 -85.734375 C 18.867188 -85.734375 20.597656 -85.007812 22.046875 -83.5625 C 23.492188 -82.113281 24.21875 -80.382812 24.21875 -78.375 C 24.21875 -76.363281 23.492188 -74.628906 22.046875 -73.171875 C 20.597656 -71.722656 18.867188 -71 16.859375 -71 Z M 16.859375 -71 "/></g></g></g><g fill="#000000" fill-opacity="1"><g transform="translate(522.765661, 97.482338)"><g><path d="M 40.40625 -61.625 C 45.539062 -61.625 50.15625 -60.503906 54.25 -58.265625 C 58.34375 -56.035156 61.539062 -52.78125 63.84375 -48.5 C 66.15625 -44.226562 67.3125 -39.078125 67.3125 -33.046875 L 67.3125 -5.578125 C 67.3125 -3.941406 66.769531 -2.582031 65.6875 -1.5 C 64.613281 -0.425781 63.257812 0.109375 61.625 0.109375 C 59.988281 0.109375 58.628906 -0.425781 57.546875 -1.5 C 56.472656 -2.582031 55.9375 -3.941406 55.9375 -5.578125 L 55.9375 -33.046875 C 55.9375 -39.078125 54.316406 -43.632812 51.078125 -46.71875 C 47.835938 -49.8125 43.539062 -51.359375 38.1875 -51.359375 C 35.0625 -51.359375 32.210938 -50.722656 29.640625 -49.453125 C 27.066406 -48.191406 25.054688 -46.476562 23.609375 -44.3125 C 22.160156 -42.15625 21.4375 -39.738281 21.4375 -37.0625 L 21.4375 -5.578125 C 21.4375 -3.941406 20.914062 -2.582031 19.875 -1.5 C 18.832031 -0.425781 17.453125 0.109375 15.734375 0.109375 C 14.097656 0.109375 12.738281 -0.425781 11.65625 -1.5 C 10.582031 -2.582031 10.046875 -3.941406 10.046875 -5.578125 L 10.046875 -55.375 C 10.046875 -57.082031 10.582031 -58.457031 11.65625 -59.5 C 12.738281 -60.539062 14.097656 -61.0625 15.734375 -61.0625 C 17.453125 -61.0625 18.832031 -60.539062 19.875 -59.5 C 20.914062 -58.457031 21.4375 -57.082031 21.4375 -55.375 L 21.4375 -54.140625 C 23.8125 -56.523438 26.632812 -58.367188 29.90625 -59.671875 C 33.1875 -60.972656 36.6875 -61.625 40.40625 -61.625 Z M 40.40625 -61.625 "/></g></g></g><g fill="#000000" fill-opacity="1"><g transform="translate(598.907546, 97.482338)"><g><path d="M 37.734375 -61.515625 C 43.609375 -61.515625 48.875 -60.191406 53.53125 -57.546875 C 58.1875 -54.910156 61.832031 -51.242188 64.46875 -46.546875 C 67.113281 -41.859375 68.4375 -36.503906 68.4375 -30.484375 L 68.4375 -6.359375 C 68.4375 -0.484375 67.132812 4.867188 64.53125 9.703125 C 61.925781 14.546875 58.257812 18.363281 53.53125 21.15625 C 48.800781 23.945312 43.460938 25.34375 37.515625 25.34375 C 32.148438 25.34375 27.160156 24.28125 22.546875 22.15625 C 17.929688 20.039062 14.0625 17.007812 10.9375 13.0625 C 10.125 12.019531 9.71875 10.976562 9.71875 9.9375 C 9.71875 8.375 10.5 7.035156 12.0625 5.921875 C 13.101562 5.242188 14.144531 4.90625 15.1875 4.90625 C 17.039062 4.90625 18.566406 5.6875 19.765625 7.25 C 21.773438 9.863281 24.300781 11.859375 27.34375 13.234375 C 30.394531 14.609375 33.859375 15.296875 37.734375 15.296875 C 41.378906 15.296875 44.691406 14.421875 47.671875 12.671875 C 50.648438 10.921875 53.03125 8.351562 54.8125 4.96875 C 56.601562 1.582031 57.5 -2.453125 57.5 -7.140625 L 57.5 -12.609375 C 55.1875 -8.515625 52.128906 -5.3125 48.328125 -3 C 44.535156 -0.695312 40.257812 0.453125 35.5 0.453125 C 29.988281 0.453125 25.054688 -0.867188 20.703125 -3.515625 C 16.347656 -6.160156 12.960938 -9.828125 10.546875 -14.515625 C 8.128906 -19.203125 6.921875 -24.523438 6.921875 -30.484375 C 6.921875 -36.503906 8.222656 -41.859375 10.828125 -46.546875 C 13.429688 -51.242188 17.078125 -54.910156 21.765625 -57.546875 C 26.453125 -60.191406 31.773438 -61.515625 37.734375 -61.515625 Z M 37.734375 -9.59375 C 41.523438 -9.59375 44.925781 -10.484375 47.9375 -12.265625 C 50.957031 -14.054688 53.304688 -16.535156 54.984375 -19.703125 C 56.660156 -22.867188 57.5 -26.460938 57.5 -30.484375 C 57.5 -34.492188 56.660156 -38.097656 54.984375 -41.296875 C 53.304688 -44.503906 50.957031 -47 47.9375 -48.78125 C 44.925781 -50.570312 41.523438 -51.46875 37.734375 -51.46875 C 33.941406 -51.46875 30.535156 -50.570312 27.515625 -48.78125 C 24.503906 -47 22.140625 -44.503906 20.421875 -41.296875 C 18.710938 -38.097656 17.859375 -34.492188 17.859375 -30.484375 C 17.859375 -26.460938 18.710938 -22.867188 20.421875 -19.703125 C 22.140625 -16.535156 24.503906 -14.054688 27.515625 -12.265625 C 30.535156 -10.484375 33.941406 -9.59375 37.734375 -9.59375 Z M 37.734375 -9.59375 "/></g></g></g><g fill="#000000" fill-opacity="1"><g transform="translate(674.267924, 97.482338)"><g/></g></g><g fill="#000000" fill-opacity="1"><g transform="translate(706.979886, 97.482338)"><g><path d="M 16.96875 0 C 15.332031 0 13.957031 -0.554688 12.84375 -1.671875 C 11.726562 -2.785156 11.171875 -4.164062 11.171875 -5.8125 L 11.171875 -81.390625 C 11.171875 -83.097656 11.726562 -84.488281 12.84375 -85.5625 C 13.957031 -86.644531 15.332031 -87.1875 16.96875 -87.1875 C 18.675781 -87.1875 20.070312 -86.644531 21.15625 -85.5625 C 22.238281 -84.488281 22.78125 -83.097656 22.78125 -81.390625 L 22.78125 -5.8125 C 22.78125 -4.164062 22.238281 -2.785156 21.15625 -1.671875 C 20.070312 -0.554688 18.675781 0 16.96875 0 Z M 16.96875 0 "/></g></g></g><g fill="#000000" fill-opacity="1"><g transform="translate(740.91998, 97.482338)"><g><path d="M 62.734375 -87.1875 C 64.453125 -87.1875 65.832031 -86.664062 66.875 -85.625 C 67.914062 -84.582031 68.4375 -83.207031 68.4375 -81.5 L 68.4375 -30.59375 C 68.4375 -24.78125 67.078125 -19.507812 64.359375 -14.78125 C 61.640625 -10.0625 57.953125 -6.34375 53.296875 -3.625 C 48.648438 -0.90625 43.460938 0.453125 37.734375 0.453125 C 32.003906 0.453125 26.773438 -0.90625 22.046875 -3.625 C 17.316406 -6.34375 13.613281 -10.0625 10.9375 -14.78125 C 8.257812 -19.507812 6.921875 -24.78125 6.921875 -30.59375 C 6.921875 -36.394531 8.164062 -41.65625 10.65625 -46.375 C 13.15625 -51.101562 16.582031 -54.804688 20.9375 -57.484375 C 25.289062 -60.171875 30.144531 -61.515625 35.5 -61.515625 C 39.820312 -61.515625 43.84375 -60.617188 47.5625 -58.828125 C 51.28125 -57.046875 54.441406 -54.554688 57.046875 -51.359375 L 57.046875 -81.5 C 57.046875 -83.207031 57.582031 -84.582031 58.65625 -85.625 C 59.738281 -86.664062 61.097656 -87.1875 62.734375 -87.1875 Z M 37.734375 -9.59375 C 41.453125 -9.59375 44.816406 -10.503906 47.828125 -12.328125 C 50.847656 -14.160156 53.210938 -16.675781 54.921875 -19.875 C 56.640625 -23.070312 57.5 -26.644531 57.5 -30.59375 C 57.5 -34.53125 56.640625 -38.082031 54.921875 -41.25 C 53.210938 -44.414062 50.847656 -46.910156 47.828125 -48.734375 C 44.816406 -50.554688 41.453125 -51.46875 37.734375 -51.46875 C 34.015625 -51.46875 30.644531 -50.554688 27.625 -48.734375 C 24.613281 -46.910156 22.234375 -44.414062 20.484375 -41.25 C 18.734375 -38.082031 17.859375 -34.53125 17.859375 -30.59375 C 17.859375 -26.644531 18.734375 -23.070312 20.484375 -19.875 C 22.234375 -16.675781 24.613281 -14.160156 27.625 -12.328125 C 30.644531 -10.503906 34.015625 -9.59375 37.734375 -9.59375 Z M 37.734375 -9.59375 "/></g></g></g><g fill="#000000" fill-opacity="1"><g transform="translate(819.406386, 97.482338)"><g><path d="M 64.859375 -31.484375 C 64.859375 -30.066406 64.375 -28.894531 63.40625 -27.96875 C 62.4375 -27.039062 61.210938 -26.578125 59.734375 -26.578125 L 17.296875 -26.578125 C 18.117188 -21.359375 20.484375 -17.148438 24.390625 -13.953125 C 28.296875 -10.753906 33.078125 -9.15625 38.734375 -9.15625 C 40.972656 -9.15625 43.300781 -9.5625 45.71875 -10.375 C 48.132812 -11.195312 50.125 -12.203125 51.6875 -13.390625 C 52.726562 -14.210938 53.957031 -14.625 55.375 -14.625 C 56.789062 -14.625 57.90625 -14.253906 58.71875 -13.515625 C 60.0625 -12.390625 60.734375 -11.125 60.734375 -9.71875 C 60.734375 -8.375 60.140625 -7.253906 58.953125 -6.359375 C 56.421875 -4.347656 53.273438 -2.707031 49.515625 -1.4375 C 45.753906 -0.175781 42.160156 0.453125 38.734375 0.453125 C 32.628906 0.453125 27.160156 -0.867188 22.328125 -3.515625 C 17.492188 -6.160156 13.71875 -9.828125 11 -14.515625 C 8.28125 -19.203125 6.921875 -24.523438 6.921875 -30.484375 C 6.921875 -36.429688 8.203125 -41.769531 10.765625 -46.5 C 13.335938 -51.226562 16.910156 -54.910156 21.484375 -57.546875 C 26.066406 -60.191406 31.257812 -61.515625 37.0625 -61.515625 C 42.789062 -61.515625 47.738281 -60.25 51.90625 -57.71875 C 56.082031 -55.1875 59.285156 -51.648438 61.515625 -47.109375 C 63.742188 -42.566406 64.859375 -37.359375 64.859375 -31.484375 Z M 37.0625 -51.90625 C 31.632812 -51.90625 27.222656 -50.414062 23.828125 -47.4375 C 20.441406 -44.46875 18.304688 -40.488281 17.421875 -35.5 L 54.59375 -35.5 C 53.925781 -40.488281 52.066406 -44.46875 49.015625 -47.4375 C 45.960938 -50.414062 41.976562 -51.90625 37.0625 -51.90625 Z M 37.0625 -51.90625 "/></g></g></g><g fill="#000000" fill-opacity="1"><g transform="translate(886.504951, 97.482338)"><g><path d="M 37.734375 -61.515625 C 43.460938 -61.515625 48.648438 -60.15625 53.296875 -57.4375 C 57.953125 -54.71875 61.640625 -50.992188 64.359375 -46.265625 C 67.078125 -41.546875 68.4375 -36.285156 68.4375 -30.484375 L 68.4375 -5.578125 C 68.4375 -3.941406 67.894531 -2.582031 66.8125 -1.5 C 65.738281 -0.425781 64.378906 0.109375 62.734375 0.109375 C 61.097656 0.109375 59.738281 -0.425781 58.65625 -1.5 C 57.582031 -2.582031 57.046875 -3.941406 57.046875 -5.578125 L 57.046875 -9.71875 C 54.441406 -6.507812 51.28125 -4.007812 47.5625 -2.21875 C 43.84375 -0.4375 39.820312 0.453125 35.5 0.453125 C 30.144531 0.453125 25.289062 -0.882812 20.9375 -3.5625 C 16.582031 -6.25 13.15625 -9.953125 10.65625 -14.671875 C 8.164062 -19.398438 6.921875 -24.671875 6.921875 -30.484375 C 6.921875 -36.285156 8.257812 -41.546875 10.9375 -46.265625 C 13.613281 -50.992188 17.316406 -54.71875 22.046875 -57.4375 C 26.773438 -60.15625 32.003906 -61.515625 37.734375 -61.515625 Z M 37.734375 -9.59375 C 41.453125 -9.59375 44.816406 -10.503906 47.828125 -12.328125 C 50.847656 -14.160156 53.210938 -16.65625 54.921875 -19.8125 C 56.640625 -22.976562 57.5 -26.535156 57.5 -30.484375 C 57.5 -34.421875 56.640625 -37.988281 54.921875 -41.1875 C 53.210938 -44.394531 50.847656 -46.910156 47.828125 -48.734375 C 44.816406 -50.554688 41.453125 -51.46875 37.734375 -51.46875 C 34.015625 -51.46875 30.644531 -50.554688 27.625 -48.734375 C 24.613281 -46.910156 22.234375 -44.394531 20.484375 -41.1875 C 18.734375 -37.988281 17.859375 -34.421875 17.859375 -30.484375 C 17.859375 -26.535156 18.734375 -22.976562 20.484375 -19.8125 C 22.234375 -16.65625 24.613281 -14.160156 27.625 -12.328125 C 30.644531 -10.503906 34.015625 -9.59375 37.734375 -9.59375 Z M 37.734375 -9.59375 "/></g></g></g><g fill="#000000" fill-opacity="1"><g transform="translate(961.865329, 97.482338)"><g><path d="M 32.265625 0.453125 C 27.203125 0.453125 22.4375 -0.328125 17.96875 -1.890625 C 13.507812 -3.460938 10.015625 -5.507812 7.484375 -8.03125 C 6.515625 -9 6.03125 -10.15625 6.03125 -11.5 C 6.03125 -13.28125 6.773438 -14.734375 8.265625 -15.859375 C 9.671875 -16.898438 10.972656 -17.421875 12.171875 -17.421875 C 13.660156 -17.421875 15.070312 -16.75 16.40625 -15.40625 C 17.820312 -13.84375 19.941406 -12.484375 22.765625 -11.328125 C 25.597656 -10.171875 28.613281 -9.59375 31.8125 -9.59375 C 36.0625 -9.59375 39.359375 -10.300781 41.703125 -11.71875 C 44.046875 -13.132812 45.21875 -15.035156 45.21875 -17.421875 C 45.21875 -19.722656 44.0625 -21.632812 41.75 -23.15625 C 39.445312 -24.6875 35.539062 -25.972656 30.03125 -27.015625 C 15.738281 -29.765625 8.59375 -35.644531 8.59375 -44.65625 C 8.59375 -48.300781 9.671875 -51.390625 11.828125 -53.921875 C 13.992188 -56.453125 16.820312 -58.347656 20.3125 -59.609375 C 23.8125 -60.878906 27.535156 -61.515625 31.484375 -61.515625 C 36.316406 -61.515625 40.648438 -60.734375 44.484375 -59.171875 C 48.316406 -57.609375 51.351562 -55.445312 53.59375 -52.6875 C 54.550781 -51.5 55.03125 -50.3125 55.03125 -49.125 C 55.03125 -47.851562 54.398438 -46.695312 53.140625 -45.65625 C 52.316406 -45.0625 51.273438 -44.765625 50.015625 -44.765625 C 48.078125 -44.765625 46.328125 -45.472656 44.765625 -46.890625 C 42.910156 -48.597656 40.9375 -49.804688 38.84375 -50.515625 C 36.757812 -51.222656 34.234375 -51.578125 31.265625 -51.578125 C 27.835938 -51.578125 25.023438 -51 22.828125 -49.84375 C 20.628906 -48.6875 19.53125 -47.066406 19.53125 -44.984375 C 19.53125 -43.503906 19.898438 -42.257812 20.640625 -41.25 C 21.390625 -40.25 22.804688 -39.316406 24.890625 -38.453125 C 26.972656 -37.597656 29.988281 -36.765625 33.9375 -35.953125 C 42.050781 -34.316406 47.800781 -32.046875 51.1875 -29.140625 C 54.570312 -26.234375 56.265625 -22.472656 56.265625 -17.859375 C 56.265625 -14.441406 55.332031 -11.335938 53.46875 -8.546875 C 51.613281 -5.753906 48.878906 -3.554688 45.265625 -1.953125 C 41.660156 -0.347656 37.328125 0.453125 32.265625 0.453125 Z M 32.265625 0.453125 "/></g></g></g><g fill="#000000" fill-opacity="1"><g transform="translate(1022.488583, 97.482338)"><g><path d="M 13.0625 -13.734375 C 15.882812 -13.734375 18.039062 -12.765625 19.53125 -10.828125 C 21.019531 -8.890625 21.765625 -6.210938 21.765625 -2.796875 C 21.765625 0.253906 21.078125 3.53125 19.703125 7.03125 C 18.328125 10.53125 16.632812 13.453125 14.625 15.796875 C 12.613281 18.140625 10.753906 19.3125 9.046875 19.3125 C 8.148438 19.3125 7.457031 19.03125 6.96875 18.46875 C 6.488281 17.914062 6.25 17.226562 6.25 16.40625 C 6.25 15.519531 6.4375 14.6875 6.8125 13.90625 C 7.1875 13.125 7.78125 12.210938 8.59375 11.171875 C 9.5625 9.828125 10.269531 8.6875 10.71875 7.75 C 11.164062 6.820312 11.390625 5.726562 11.390625 4.46875 C 11.390625 3.351562 11.144531 2.40625 10.65625 1.625 C 10.175781 0.84375 9.488281 0.00390625 8.59375 -0.890625 C 7.625 -1.859375 6.878906 -2.75 6.359375 -3.5625 C 5.835938 -4.382812 5.578125 -5.429688 5.578125 -6.703125 C 5.578125 -8.710938 6.265625 -10.382812 7.640625 -11.71875 C 9.023438 -13.0625 10.832031 -13.734375 13.0625 -13.734375 Z M 13.0625 -13.734375 "/></g></g></g><g fill="#000000" fill-opacity="1"><g transform="translate(1049.841564, 97.482338)"><g/></g></g><g fill="#000000" fill-opacity="1"><g transform="translate(1082.553584, 97.482338)"><g><path d="M 16.96875 0 C 15.332031 0 13.957031 -0.554688 12.84375 -1.671875 C 11.726562 -2.785156 11.171875 -4.164062 11.171875 -5.8125 L 11.171875 -81.390625 C 11.171875 -83.097656 11.726562 -84.488281 12.84375 -85.5625 C 13.957031 -86.644531 15.332031 -87.1875 16.96875 -87.1875 L 39.296875 -87.1875 C 44.804688 -87.1875 49.738281 -85.957031 54.09375 -83.5 C 58.445312 -81.050781 61.832031 -77.628906 64.25 -73.234375 C 66.664062 -68.847656 67.875 -63.863281 67.875 -58.28125 C 67.875 -52.84375 66.664062 -48.003906 64.25 -43.765625 C 61.832031 -39.523438 58.445312 -36.210938 54.09375 -33.828125 C 49.738281 -31.441406 44.804688 -30.25 39.296875 -30.25 L 22.78125 -30.25 L 22.78125 -5.8125 C 22.78125 -4.164062 22.238281 -2.785156 21.15625 -1.671875 C 20.070312 -0.554688 18.675781 0 16.96875 0 Z M 39.296875 -40.96875 C 44.359375 -40.96875 48.523438 -42.585938 51.796875 -45.828125 C 55.078125 -49.066406 56.71875 -53.21875 56.71875 -58.28125 C 56.71875 -63.5625 55.078125 -67.910156 51.796875 -71.328125 C 48.523438 -74.753906 44.359375 -76.46875 39.296875 -76.46875 L 22.78125 -76.46875 L 22.78125 -40.96875 Z M 39.296875 -40.96875 "/></g></g></g><g fill="#000000" fill-opacity="1"><g transform="translate(1149.875404, 97.482338)"><g><path d="M 64.859375 -31.484375 C 64.859375 -30.066406 64.375 -28.894531 63.40625 -27.96875 C 62.4375 -27.039062 61.210938 -26.578125 59.734375 -26.578125 L 17.296875 -26.578125 C 18.117188 -21.359375 20.484375 -17.148438 24.390625 -13.953125 C 28.296875 -10.753906 33.078125 -9.15625 38.734375 -9.15625 C 40.972656 -9.15625 43.300781 -9.5625 45.71875 -10.375 C 48.132812 -11.195312 50.125 -12.203125 51.6875 -13.390625 C 52.726562 -14.210938 53.957031 -14.625 55.375 -14.625 C 56.789062 -14.625 57.90625 -14.253906 58.71875 -13.515625 C 60.0625 -12.390625 60.734375 -11.125 60.734375 -9.71875 C 60.734375 -8.375 60.140625 -7.253906 58.953125 -6.359375 C 56.421875 -4.347656 53.273438 -2.707031 49.515625 -1.4375 C 45.753906 -0.175781 42.160156 0.453125 38.734375 0.453125 C 32.628906 0.453125 27.160156 -0.867188 22.328125 -3.515625 C 17.492188 -6.160156 13.71875 -9.828125 11 -14.515625 C 8.28125 -19.203125 6.921875 -24.523438 6.921875 -30.484375 C 6.921875 -36.429688 8.203125 -41.769531 10.765625 -46.5 C 13.335938 -51.226562 16.910156 -54.910156 21.484375 -57.546875 C 26.066406 -60.191406 31.257812 -61.515625 37.0625 -61.515625 C 42.789062 -61.515625 47.738281 -60.25 51.90625 -57.71875 C 56.082031 -55.1875 59.285156 -51.648438 61.515625 -47.109375 C 63.742188 -42.566406 64.859375 -37.359375 64.859375 -31.484375 Z M 37.0625 -51.90625 C 31.632812 -51.90625 27.222656 -50.414062 23.828125 -47.4375 C 20.441406 -44.46875 18.304688 -40.488281 17.421875 -35.5 L 54.59375 -35.5 C 53.925781 -40.488281 52.066406 -44.46875 49.015625 -47.4375 C 45.960938 -50.414062 41.976562 -51.90625 37.0625 -51.90625 Z M 37.0625 -51.90625 "/></g></g></g><g fill="#000000" fill-opacity="1"><g transform="translate(1216.974085, 97.482338)"><g><path d="M 37.734375 0.453125 C 31.773438 0.453125 26.453125 -0.867188 21.765625 -3.515625 C 17.078125 -6.160156 13.429688 -9.828125 10.828125 -14.515625 C 8.222656 -19.203125 6.921875 -24.523438 6.921875 -30.484375 C 6.921875 -36.503906 8.222656 -41.859375 10.828125 -46.546875 C 13.429688 -51.242188 17.078125 -54.910156 21.765625 -57.546875 C 26.453125 -60.191406 31.773438 -61.515625 37.734375 -61.515625 C 43.609375 -61.515625 48.875 -60.191406 53.53125 -57.546875 C 58.1875 -54.910156 61.832031 -51.242188 64.46875 -46.546875 C 67.113281 -41.859375 68.4375 -36.503906 68.4375 -30.484375 C 68.4375 -24.523438 67.132812 -19.203125 64.53125 -14.515625 C 61.925781 -9.828125 58.296875 -6.160156 53.640625 -3.515625 C 48.992188 -0.867188 43.691406 0.453125 37.734375 0.453125 Z M 37.734375 -9.59375 C 41.523438 -9.59375 44.925781 -10.484375 47.9375 -12.265625 C 50.957031 -14.054688 53.304688 -16.535156 54.984375 -19.703125 C 56.660156 -22.867188 57.5 -26.460938 57.5 -30.484375 C 57.5 -34.492188 56.660156 -38.097656 54.984375 -41.296875 C 53.304688 -44.503906 50.957031 -47 47.9375 -48.78125 C 44.925781 -50.570312 41.523438 -51.46875 37.734375 -51.46875 C 33.941406 -51.46875 30.535156 -50.570312 27.515625 -48.78125 C 24.503906 -47 22.140625 -44.503906 20.421875 -41.296875 C 18.710938 -38.097656 17.859375 -34.492188 17.859375 -30.484375 C 17.859375 -26.460938 18.710938 -22.867188 20.421875 -19.703125 C 22.140625 -16.535156 24.503906 -14.054688 27.515625 -12.265625 C 30.535156 -10.484375 33.941406 -9.59375 37.734375 -9.59375 Z M 37.734375 -9.59375 "/></g></g></g><g fill="#000000" fill-opacity="1"><g transform="translate(1292.334463, 97.482338)"><g><path d="M 40.75 -61.515625 C 46.476562 -61.515625 51.707031 -60.15625 56.4375 -57.4375 C 61.164062 -54.71875 64.867188 -50.992188 67.546875 -46.265625 C 70.222656 -41.546875 71.5625 -36.285156 71.5625 -30.484375 C 71.5625 -24.671875 70.3125 -19.398438 67.8125 -14.671875 C 65.320312 -9.953125 61.898438 -6.25 57.546875 -3.5625 C 53.191406 -0.882812 48.335938 0.453125 42.984375 0.453125 C 38.660156 0.453125 34.640625 -0.4375 30.921875 -2.21875 C 27.203125 -4.007812 24.039062 -6.507812 21.4375 -9.71875 L 21.4375 20.4375 C 21.4375 22.144531 20.914062 23.519531 19.875 24.5625 C 18.832031 25.601562 17.453125 26.125 15.734375 26.125 C 14.097656 26.125 12.738281 25.601562 11.65625 24.5625 C 10.582031 23.519531 10.046875 22.144531 10.046875 20.4375 L 10.046875 -30.484375 C 10.046875 -36.285156 11.40625 -41.546875 14.125 -46.265625 C 16.84375 -50.992188 20.523438 -54.71875 25.171875 -57.4375 C 29.828125 -60.15625 35.019531 -61.515625 40.75 -61.515625 Z M 40.75 -9.59375 C 44.46875 -9.59375 47.832031 -10.503906 50.84375 -12.328125 C 53.863281 -14.160156 56.25 -16.65625 58 -19.8125 C 59.75 -22.976562 60.625 -26.535156 60.625 -30.484375 C 60.625 -34.421875 59.75 -37.988281 58 -41.1875 C 56.25 -44.394531 53.863281 -46.910156 50.84375 -48.734375 C 47.832031 -50.554688 44.46875 -51.46875 40.75 -51.46875 C 37.03125 -51.46875 33.660156 -50.554688 30.640625 -48.734375 C 27.628906 -46.910156 25.265625 -44.394531 23.546875 -41.1875 C 21.835938 -37.988281 20.984375 -34.421875 20.984375 -30.484375 C 20.984375 -26.535156 21.835938 -22.976562 23.546875 -19.8125 C 25.265625 -16.65625 27.628906 -14.160156 30.640625 -12.328125 C 33.660156 -10.503906 37.03125 -9.59375 40.75 -9.59375 Z M 40.75 -9.59375 "/></g></g></g><g fill="#000000" fill-opacity="1"><g transform="translate(1370.820869, 97.482338)"><g><path d="M 24.5625 0 C 21.363281 0 18.476562 -0.875 15.90625 -2.625 C 13.34375 -4.375 11.351562 -6.828125 9.9375 -9.984375 C 8.519531 -13.148438 7.8125 -16.707031 7.8125 -20.65625 L 7.8125 -81.609375 C 7.8125 -83.242188 8.332031 -84.582031 9.375 -85.625 C 10.414062 -86.664062 11.753906 -87.1875 13.390625 -87.1875 C 15.035156 -87.1875 16.378906 -86.664062 17.421875 -85.625 C 18.460938 -84.582031 18.984375 -83.242188 18.984375 -81.609375 L 18.984375 -20.65625 C 18.984375 -17.894531 19.503906 -15.625 20.546875 -13.84375 C 21.585938 -12.0625 22.925781 -11.171875 24.5625 -11.171875 L 27.359375 -11.171875 C 28.835938 -11.171875 30.039062 -10.644531 30.96875 -9.59375 C 31.90625 -8.550781 32.375 -7.210938 32.375 -5.578125 C 32.375 -3.941406 31.664062 -2.601562 30.25 -1.5625 C 28.84375 -0.519531 27.019531 0 24.78125 0 Z M 24.5625 0 "/></g></g></g><g fill="#000000" fill-opacity="1"><g transform="translate(1400.96488, 97.482338)"><g><path d="M 64.859375 -31.484375 C 64.859375 -30.066406 64.375 -28.894531 63.40625 -27.96875 C 62.4375 -27.039062 61.210938 -26.578125 59.734375 -26.578125 L 17.296875 -26.578125 C 18.117188 -21.359375 20.484375 -17.148438 24.390625 -13.953125 C 28.296875 -10.753906 33.078125 -9.15625 38.734375 -9.15625 C 40.972656 -9.15625 43.300781 -9.5625 45.71875 -10.375 C 48.132812 -11.195312 50.125 -12.203125 51.6875 -13.390625 C 52.726562 -14.210938 53.957031 -14.625 55.375 -14.625 C 56.789062 -14.625 57.90625 -14.253906 58.71875 -13.515625 C 60.0625 -12.390625 60.734375 -11.125 60.734375 -9.71875 C 60.734375 -8.375 60.140625 -7.253906 58.953125 -6.359375 C 56.421875 -4.347656 53.273438 -2.707031 49.515625 -1.4375 C 45.753906 -0.175781 42.160156 0.453125 38.734375 0.453125 C 32.628906 0.453125 27.160156 -0.867188 22.328125 -3.515625 C 17.492188 -6.160156 13.71875 -9.828125 11 -14.515625 C 8.28125 -19.203125 6.921875 -24.523438 6.921875 -30.484375 C 6.921875 -36.429688 8.203125 -41.769531 10.765625 -46.5 C 13.335938 -51.226562 16.910156 -54.910156 21.484375 -57.546875 C 26.066406 -60.191406 31.257812 -61.515625 37.0625 -61.515625 C 42.789062 -61.515625 47.738281 -60.25 51.90625 -57.71875 C 56.082031 -55.1875 59.285156 -51.648438 61.515625 -47.109375 C 63.742188 -42.566406 64.859375 -37.359375 64.859375 -31.484375 Z M 37.0625 -51.90625 C 31.632812 -51.90625 27.222656 -50.414062 23.828125 -47.4375 C 20.441406 -44.46875 18.304688 -40.488281 17.421875 -35.5 L 54.59375 -35.5 C 53.925781 -40.488281 52.066406 -44.46875 49.015625 -47.4375 C 45.960938 -50.414062 41.976562 -51.90625 37.0625 -51.90625 Z M 37.0625 -51.90625 "/></g></g></g><g fill="#000000" fill-opacity="1"><g transform="translate(1470.296456, 97.482338)"><g/></g></g><g fill="#000000" fill-opacity="1"><g transform="translate(1503.008476, 97.482338)"><g><path d="M 76.578125 -8.484375 C 77.921875 -7.140625 78.59375 -5.910156 78.59375 -4.796875 C 78.59375 -3.828125 78.070312 -2.820312 77.03125 -1.78125 C 75.84375 -0.59375 74.648438 0 73.453125 0 C 72.410156 0 71.222656 -0.59375 69.890625 -1.78125 L 57.609375 -14.0625 L 57.046875 -13.390625 C 52.878906 -8.628906 48.503906 -4.945312 43.921875 -2.34375 C 39.347656 0.257812 34.269531 1.5625 28.6875 1.5625 C 21.539062 1.5625 15.8125 -0.367188 11.5 -4.234375 C 7.1875 -8.109375 5.03125 -13.429688 5.03125 -20.203125 C 5.03125 -24.890625 6.550781 -29.222656 9.59375 -33.203125 C 12.644531 -37.191406 17.335938 -41.71875 23.671875 -46.78125 L 24.34375 -47.21875 L 18.53125 -53.03125 C 13.320312 -58.382812 10.71875 -64.148438 10.71875 -70.328125 C 10.71875 -73.828125 11.609375 -77.023438 13.390625 -79.921875 C 15.179688 -82.828125 17.640625 -85.097656 20.765625 -86.734375 C 23.890625 -88.378906 27.390625 -89.203125 31.265625 -89.203125 C 35.203125 -89.203125 38.734375 -88.34375 41.859375 -86.625 C 44.984375 -84.914062 47.4375 -82.550781 49.21875 -79.53125 C 51.007812 -76.519531 51.90625 -73.191406 51.90625 -69.546875 C 51.832031 -65.304688 50.734375 -61.566406 48.609375 -58.328125 C 46.492188 -55.085938 42.867188 -51.421875 37.734375 -47.328125 L 57.828125 -27.234375 L 66.765625 -36.734375 C 68.171875 -38.296875 69.4375 -39.078125 70.5625 -39.078125 C 71.375 -39.078125 72.226562 -38.628906 73.125 -37.734375 C 74.3125 -36.617188 74.90625 -35.425781 74.90625 -34.15625 C 74.90625 -32.894531 74.382812 -31.707031 73.34375 -30.59375 L 64.1875 -20.875 Z M 31.703125 -53.25 L 32.9375 -54.140625 C 36.582031 -57.046875 39.035156 -59.671875 40.296875 -62.015625 C 41.566406 -64.359375 42.238281 -66.945312 42.3125 -69.78125 C 42.3125 -72.75 41.320312 -75.238281 39.34375 -77.25 C 37.375 -79.257812 34.679688 -80.265625 31.265625 -80.265625 C 28.054688 -80.265625 25.425781 -79.316406 23.375 -77.421875 C 21.332031 -75.523438 20.3125 -73.238281 20.3125 -70.5625 C 20.3125 -66.613281 22.132812 -62.816406 25.78125 -59.171875 Z M 51.25 -20.4375 L 30.25 -41.3125 L 28.796875 -40.1875 C 24.484375 -36.769531 21.191406 -33.492188 18.921875 -30.359375 C 16.648438 -27.234375 15.515625 -24 15.515625 -20.65625 C 15.515625 -16.488281 16.648438 -13.34375 18.921875 -11.21875 C 21.191406 -9.09375 24.445312 -8.03125 28.6875 -8.03125 C 32.851562 -8.03125 36.59375 -8.976562 39.90625 -10.875 C 43.21875 -12.78125 46.738281 -15.664062 50.46875 -19.53125 Z M 51.25 -20.4375 "/></g></g></g><g fill="#000000" fill-opacity="1"><g transform="translate(1584.620911, 97.482338)"><g/></g></g><g fill="#000000" fill-opacity="1"><g transform="translate(1617.332931, 97.482338)"><g><path d="M 38.84375 1.109375 C 31.625 1.109375 25.054688 -0.523438 19.140625 -3.796875 C 13.222656 -7.066406 9.148438 -11.347656 6.921875 -16.640625 C 6.546875 -17.523438 6.359375 -18.269531 6.359375 -18.875 C 6.359375 -19.988281 6.765625 -20.972656 7.578125 -21.828125 C 8.398438 -22.679688 9.519531 -23.257812 10.9375 -23.5625 C 11.164062 -23.632812 11.539062 -23.671875 12.0625 -23.671875 C 13.25 -23.671875 14.378906 -23.316406 15.453125 -22.609375 C 16.535156 -21.898438 17.335938 -20.953125 17.859375 -19.765625 C 19.203125 -16.859375 21.84375 -14.398438 25.78125 -12.390625 C 29.726562 -10.378906 34.082031 -9.375 38.84375 -9.375 C 44.425781 -9.375 49.148438 -10.65625 53.015625 -13.21875 C 56.890625 -15.789062 58.828125 -19.3125 58.828125 -23.78125 C 58.828125 -28.019531 57.191406 -31.644531 53.921875 -34.65625 C 50.648438 -37.675781 45.664062 -39.519531 38.96875 -40.1875 C 29.738281 -41.082031 22.476562 -43.78125 17.1875 -48.28125 C 11.90625 -52.78125 9.265625 -58.421875 9.265625 -65.203125 C 9.265625 -69.960938 10.625 -74.070312 13.34375 -77.53125 C 16.0625 -80.988281 19.78125 -83.628906 24.5 -85.453125 C 29.226562 -87.285156 34.53125 -88.203125 40.40625 -88.203125 C 46.8125 -88.203125 52.207031 -86.894531 56.59375 -84.28125 C 60.988281 -81.675781 64.710938 -77.957031 67.765625 -73.125 C 68.660156 -71.707031 69.109375 -70.367188 69.109375 -69.109375 C 69.109375 -67.472656 68.363281 -66.132812 66.875 -65.09375 C 66.050781 -64.570312 65.082031 -64.3125 63.96875 -64.3125 C 62.851562 -64.3125 61.8125 -64.585938 60.84375 -65.140625 C 59.875 -65.703125 59.128906 -66.46875 58.609375 -67.4375 C 56.597656 -70.78125 54.082031 -73.328125 51.0625 -75.078125 C 48.050781 -76.828125 44.238281 -77.703125 39.625 -77.703125 C 33.96875 -77.703125 29.390625 -76.601562 25.890625 -74.40625 C 22.398438 -72.207031 20.65625 -69.023438 20.65625 -64.859375 C 20.65625 -60.992188 22.21875 -57.757812 25.34375 -55.15625 C 28.46875 -52.550781 34.050781 -50.835938 42.09375 -50.015625 C 51.019531 -49.117188 57.9375 -46.421875 62.84375 -41.921875 C 67.757812 -37.421875 70.21875 -31.484375 70.21875 -24.109375 C 70.21875 -18.753906 68.765625 -14.160156 65.859375 -10.328125 C 62.960938 -6.492188 59.113281 -3.628906 54.3125 -1.734375 C 49.507812 0.160156 44.351562 1.109375 38.84375 1.109375 Z M 38.84375 1.109375 "/></g></g></g><g fill="#000000" fill-opacity="1"><g transform="translate(1694.14458, 97.482338)"><g><path d="M 37.734375 0.453125 C 31.773438 0.453125 26.453125 -0.867188 21.765625 -3.515625 C 17.078125 -6.160156 13.429688 -9.828125 10.828125 -14.515625 C 8.222656 -19.203125 6.921875 -24.523438 6.921875 -30.484375 C 6.921875 -36.503906 8.222656 -41.859375 10.828125 -46.546875 C 13.429688 -51.242188 17.078125 -54.910156 21.765625 -57.546875 C 26.453125 -60.191406 31.773438 -61.515625 37.734375 -61.515625 C 43.609375 -61.515625 48.875 -60.191406 53.53125 -57.546875 C 58.1875 -54.910156 61.832031 -51.242188 64.46875 -46.546875 C 67.113281 -41.859375 68.4375 -36.503906 68.4375 -30.484375 C 68.4375 -24.523438 67.132812 -19.203125 64.53125 -14.515625 C 61.925781 -9.828125 58.296875 -6.160156 53.640625 -3.515625 C 48.992188 -0.867188 43.691406 0.453125 37.734375 0.453125 Z M 37.734375 -9.59375 C 41.523438 -9.59375 44.925781 -10.484375 47.9375 -12.265625 C 50.957031 -14.054688 53.304688 -16.535156 54.984375 -19.703125 C 56.660156 -22.867188 57.5 -26.460938 57.5 -30.484375 C 57.5 -34.492188 56.660156 -38.097656 54.984375 -41.296875 C 53.304688 -44.503906 50.957031 -47 47.9375 -48.78125 C 44.925781 -50.570312 41.523438 -51.46875 37.734375 -51.46875 C 33.941406 -51.46875 30.535156 -50.570312 27.515625 -48.78125 C 24.503906 -47 22.140625 -44.503906 20.421875 -41.296875 C 18.710938 -38.097656 17.859375 -34.492188 17.859375 -30.484375 C 17.859375 -26.460938 18.710938 -22.867188 20.421875 -19.703125 C 22.140625 -16.535156 24.503906 -14.054688 27.515625 -12.265625 C 30.535156 -10.484375 33.941406 -9.59375 37.734375 -9.59375 Z M 37.734375 -9.59375 "/></g></g></g><g fill="#000000" fill-opacity="1"><g transform="translate(1769.504957, 97.482338)"><g><path d="M 24.5625 0 C 21.363281 0 18.476562 -0.875 15.90625 -2.625 C 13.34375 -4.375 11.351562 -6.828125 9.9375 -9.984375 C 8.519531 -13.148438 7.8125 -16.707031 7.8125 -20.65625 L 7.8125 -81.609375 C 7.8125 -83.242188 8.332031 -84.582031 9.375 -85.625 C 10.414062 -86.664062 11.753906 -87.1875 13.390625 -87.1875 C 15.035156 -87.1875 16.378906 -86.664062 17.421875 -85.625 C 18.460938 -84.582031 18.984375 -83.242188 18.984375 -81.609375 L 18.984375 -20.65625 C 18.984375 -17.894531 19.503906 -15.625 20.546875 -13.84375 C 21.585938 -12.0625 22.925781 -11.171875 24.5625 -11.171875 L 27.359375 -11.171875 C 28.835938 -11.171875 30.039062 -10.644531 30.96875 -9.59375 C 31.90625 -8.550781 32.375 -7.210938 32.375 -5.578125 C 32.375 -3.941406 31.664062 -2.601562 30.25 -1.5625 C 28.84375 -0.519531 27.019531 0 24.78125 0 Z M 24.5625 0 "/></g></g></g><g fill="#000000" fill-opacity="1"><g transform="translate(1802.998484, 97.482338)"><g><path d="M 60.390625 -61.171875 C 62.109375 -61.171875 63.488281 -60.648438 64.53125 -59.609375 C 65.570312 -58.566406 66.09375 -57.191406 66.09375 -55.484375 L 66.09375 -5.6875 C 66.09375 -4.050781 65.570312 -2.691406 64.53125 -1.609375 C 63.488281 -0.535156 62.109375 0 60.390625 0 C 58.753906 0 57.394531 -0.535156 56.3125 -1.609375 C 55.238281 -2.691406 54.703125 -4.050781 54.703125 -5.6875 L 54.703125 -6.921875 C 52.316406 -4.535156 49.488281 -2.691406 46.21875 -1.390625 C 42.945312 -0.0859375 39.445312 0.5625 35.71875 0.5625 C 30.582031 0.5625 25.96875 -0.550781 21.875 -2.78125 C 17.78125 -5.019531 14.578125 -8.28125 12.265625 -12.5625 C 9.960938 -16.84375 8.8125 -21.992188 8.8125 -28.015625 L 8.8125 -55.484375 C 8.8125 -57.117188 9.351562 -58.472656 10.4375 -59.546875 C 11.519531 -60.628906 12.878906 -61.171875 14.515625 -61.171875 C 16.148438 -61.171875 17.503906 -60.628906 18.578125 -59.546875 C 19.660156 -58.472656 20.203125 -57.117188 20.203125 -55.484375 L 20.203125 -28.015625 C 20.203125 -21.992188 21.820312 -17.4375 25.0625 -14.34375 C 28.300781 -11.257812 32.597656 -9.71875 37.953125 -9.71875 C 41.078125 -9.71875 43.921875 -10.347656 46.484375 -11.609375 C 49.054688 -12.878906 51.066406 -14.59375 52.515625 -16.75 C 53.972656 -18.90625 54.703125 -21.320312 54.703125 -24 L 54.703125 -55.484375 C 54.703125 -57.191406 55.238281 -58.566406 56.3125 -59.609375 C 57.394531 -60.648438 58.753906 -61.171875 60.390625 -61.171875 Z M 60.390625 -61.171875 "/></g></g></g><g fill="#000000" fill-opacity="1"><g transform="translate(1879.140369, 97.482338)"><g><path d="M 36.0625 -11.171875 C 37.394531 -11.171875 38.523438 -10.644531 39.453125 -9.59375 C 40.390625 -8.550781 40.859375 -7.210938 40.859375 -5.578125 C 40.859375 -3.941406 40.242188 -2.601562 39.015625 -1.5625 C 37.785156 -0.519531 36.207031 0 34.28125 0 L 32.265625 0 C 28.617188 0 25.285156 -0.945312 22.265625 -2.84375 C 19.253906 -4.738281 16.890625 -7.320312 15.171875 -10.59375 C 13.460938 -13.875 12.609375 -17.5625 12.609375 -21.65625 L 12.609375 -49.234375 L 7.484375 -49.234375 C 5.921875 -49.234375 4.65625 -49.675781 3.6875 -50.5625 C 2.71875 -51.457031 2.234375 -52.578125 2.234375 -53.921875 C 2.234375 -55.410156 2.71875 -56.597656 3.6875 -57.484375 C 4.65625 -58.378906 5.921875 -58.828125 7.484375 -58.828125 L 12.609375 -58.828125 L 12.609375 -74.90625 C 12.609375 -76.539062 13.128906 -77.878906 14.171875 -78.921875 C 15.210938 -79.972656 16.554688 -80.5 18.203125 -80.5 C 19.835938 -80.5 21.175781 -79.972656 22.21875 -78.921875 C 23.257812 -77.878906 23.78125 -76.539062 23.78125 -74.90625 L 23.78125 -58.828125 L 33.265625 -58.828125 C 34.828125 -58.828125 36.09375 -58.378906 37.0625 -57.484375 C 38.03125 -56.597656 38.515625 -55.410156 38.515625 -53.921875 C 38.515625 -52.578125 38.03125 -51.457031 37.0625 -50.5625 C 36.09375 -49.675781 34.828125 -49.234375 33.265625 -49.234375 L 23.78125 -49.234375 L 23.78125 -21.65625 C 23.78125 -18.675781 24.597656 -16.179688 26.234375 -14.171875 C 27.867188 -12.171875 29.878906 -11.171875 32.265625 -11.171875 Z M 36.0625 -11.171875 "/></g></g></g><g fill="#000000" fill-opacity="1"><g transform="translate(1923.909994, 97.482338)"><g><path d="M 16.859375 0 C 15.222656 0 13.863281 -0.535156 12.78125 -1.609375 C 11.707031 -2.691406 11.171875 -4.050781 11.171875 -5.6875 L 11.171875 -55.375 C 11.171875 -57.082031 11.707031 -58.457031 12.78125 -59.5 C 13.863281 -60.539062 15.222656 -61.0625 16.859375 -61.0625 C 18.566406 -61.0625 19.941406 -60.539062 20.984375 -59.5 C 22.023438 -58.457031 22.546875 -57.082031 22.546875 -55.375 L 22.546875 -5.6875 C 22.546875 -4.050781 22.023438 -2.691406 20.984375 -1.609375 C 19.941406 -0.535156 18.566406 0 16.859375 0 Z M 16.859375 -71 C 14.847656 -71 13.113281 -71.722656 11.65625 -73.171875 C 10.207031 -74.628906 9.484375 -76.363281 9.484375 -78.375 C 9.484375 -80.382812 10.207031 -82.113281 11.65625 -83.5625 C 13.113281 -85.007812 14.847656 -85.734375 16.859375 -85.734375 C 18.867188 -85.734375 20.597656 -85.007812 22.046875 -83.5625 C 23.492188 -82.113281 24.21875 -80.382812 24.21875 -78.375 C 24.21875 -76.363281 23.492188 -74.628906 22.046875 -73.171875 C 20.597656 -71.722656 18.867188 -71 16.859375 -71 Z M 16.859375 -71 "/></g></g></g><g fill="#000000" fill-opacity="1"><g transform="translate(1957.626775, 97.482338)"><g><path d="M 37.734375 0.453125 C 31.773438 0.453125 26.453125 -0.867188 21.765625 -3.515625 C 17.078125 -6.160156 13.429688 -9.828125 10.828125 -14.515625 C 8.222656 -19.203125 6.921875 -24.523438 6.921875 -30.484375 C 6.921875 -36.503906 8.222656 -41.859375 10.828125 -46.546875 C 13.429688 -51.242188 17.078125 -54.910156 21.765625 -57.546875 C 26.453125 -60.191406 31.773438 -61.515625 37.734375 -61.515625 C 43.609375 -61.515625 48.875 -60.191406 53.53125 -57.546875 C 58.1875 -54.910156 61.832031 -51.242188 64.46875 -46.546875 C 67.113281 -41.859375 68.4375 -36.503906 68.4375 -30.484375 C 68.4375 -24.523438 67.132812 -19.203125 64.53125 -14.515625 C 61.925781 -9.828125 58.296875 -6.160156 53.640625 -3.515625 C 48.992188 -0.867188 43.691406 0.453125 37.734375 0.453125 Z M 37.734375 -9.59375 C 41.523438 -9.59375 44.925781 -10.484375 47.9375 -12.265625 C 50.957031 -14.054688 53.304688 -16.535156 54.984375 -19.703125 C 56.660156 -22.867188 57.5 -26.460938 57.5 -30.484375 C 57.5 -34.492188 56.660156 -38.097656 54.984375 -41.296875 C 53.304688 -44.503906 50.957031 -47 47.9375 -48.78125 C 44.925781 -50.570312 41.523438 -51.46875 37.734375 -51.46875 C 33.941406 -51.46875 30.535156 -50.570312 27.515625 -48.78125 C 24.503906 -47 22.140625 -44.503906 20.421875 -41.296875 C 18.710938 -38.097656 17.859375 -34.492188 17.859375 -30.484375 C 17.859375 -26.460938 18.710938 -22.867188 20.421875 -19.703125 C 22.140625 -16.535156 24.503906 -14.054688 27.515625 -12.265625 C 30.535156 -10.484375 33.941406 -9.59375 37.734375 -9.59375 Z M 37.734375 -9.59375 "/></g></g></g><g fill="#000000" fill-opacity="1"><g transform="translate(2032.987153, 97.482338)"><g><path d="M 40.40625 -61.625 C 45.539062 -61.625 50.15625 -60.503906 54.25 -58.265625 C 58.34375 -56.035156 61.539062 -52.78125 63.84375 -48.5 C 66.15625 -44.226562 67.3125 -39.078125 67.3125 -33.046875 L 67.3125 -5.578125 C 67.3125 -3.941406 66.769531 -2.582031 65.6875 -1.5 C 64.613281 -0.425781 63.257812 0.109375 61.625 0.109375 C 59.988281 0.109375 58.628906 -0.425781 57.546875 -1.5 C 56.472656 -2.582031 55.9375 -3.941406 55.9375 -5.578125 L 55.9375 -33.046875 C 55.9375 -39.078125 54.316406 -43.632812 51.078125 -46.71875 C 47.835938 -49.8125 43.539062 -51.359375 38.1875 -51.359375 C 35.0625 -51.359375 32.210938 -50.722656 29.640625 -49.453125 C 27.066406 -48.191406 25.054688 -46.476562 23.609375 -44.3125 C 22.160156 -42.15625 21.4375 -39.738281 21.4375 -37.0625 L 21.4375 -5.578125 C 21.4375 -3.941406 20.914062 -2.582031 19.875 -1.5 C 18.832031 -0.425781 17.453125 0.109375 15.734375 0.109375 C 14.097656 0.109375 12.738281 -0.425781 11.65625 -1.5 C 10.582031 -2.582031 10.046875 -3.941406 10.046875 -5.578125 L 10.046875 -55.375 C 10.046875 -57.082031 10.582031 -58.457031 11.65625 -59.5 C 12.738281 -60.539062 14.097656 -61.0625 15.734375 -61.0625 C 17.453125 -61.0625 18.832031 -60.539062 19.875 -59.5 C 20.914062 -58.457031 21.4375 -57.082031 21.4375 -55.375 L 21.4375 -54.140625 C 23.8125 -56.523438 26.632812 -58.367188 29.90625 -59.671875 C 33.1875 -60.972656 36.6875 -61.625 40.40625 -61.625 Z M 40.40625 -61.625 "/></g></g></g><g fill="#000000" fill-opacity="1"><g transform="translate(2109.129037, 97.482338)"><g><path d="M 32.265625 0.453125 C 27.203125 0.453125 22.4375 -0.328125 17.96875 -1.890625 C 13.507812 -3.460938 10.015625 -5.507812 7.484375 -8.03125 C 6.515625 -9 6.03125 -10.15625 6.03125 -11.5 C 6.03125 -13.28125 6.773438 -14.734375 8.265625 -15.859375 C 9.671875 -16.898438 10.972656 -17.421875 12.171875 -17.421875 C 13.660156 -17.421875 15.070312 -16.75 16.40625 -15.40625 C 17.820312 -13.84375 19.941406 -12.484375 22.765625 -11.328125 C 25.597656 -10.171875 28.613281 -9.59375 31.8125 -9.59375 C 36.0625 -9.59375 39.359375 -10.300781 41.703125 -11.71875 C 44.046875 -13.132812 45.21875 -15.035156 45.21875 -17.421875 C 45.21875 -19.722656 44.0625 -21.632812 41.75 -23.15625 C 39.445312 -24.6875 35.539062 -25.972656 30.03125 -27.015625 C 15.738281 -29.765625 8.59375 -35.644531 8.59375 -44.65625 C 8.59375 -48.300781 9.671875 -51.390625 11.828125 -53.921875 C 13.992188 -56.453125 16.820312 -58.347656 20.3125 -59.609375 C 23.8125 -60.878906 27.535156 -61.515625 31.484375 -61.515625 C 36.316406 -61.515625 40.648438 -60.734375 44.484375 -59.171875 C 48.316406 -57.609375 51.351562 -55.445312 53.59375 -52.6875 C 54.550781 -51.5 55.03125 -50.3125 55.03125 -49.125 C 55.03125 -47.851562 54.398438 -46.695312 53.140625 -45.65625 C 52.316406 -45.0625 51.273438 -44.765625 50.015625 -44.765625 C 48.078125 -44.765625 46.328125 -45.472656 44.765625 -46.890625 C 42.910156 -48.597656 40.9375 -49.804688 38.84375 -50.515625 C 36.757812 -51.222656 34.234375 -51.578125 31.265625 -51.578125 C 27.835938 -51.578125 25.023438 -51 22.828125 -49.84375 C 20.628906 -48.6875 19.53125 -47.066406 19.53125 -44.984375 C 19.53125 -43.503906 19.898438 -42.257812 20.640625 -41.25 C 21.390625 -40.25 22.804688 -39.316406 24.890625 -38.453125 C 26.972656 -37.597656 29.988281 -36.765625 33.9375 -35.953125 C 42.050781 -34.316406 47.800781 -32.046875 51.1875 -29.140625 C 54.570312 -26.234375 56.265625 -22.472656 56.265625 -17.859375 C 56.265625 -14.441406 55.332031 -11.335938 53.46875 -8.546875 C 51.613281 -5.753906 48.878906 -3.554688 45.265625 -1.953125 C 41.660156 -0.347656 37.328125 0.453125 32.265625 0.453125 Z M 32.265625 0.453125 "/></g></g></g></g></g></svg>